<?xml version="1.0"?>
<svg width="139" height="24" xmlns="http://www.w3.org/2000/svg" xmlns:svg="http://www.w3.org/2000/svg">
 <g class="layer">
  <title>Layer 1</title>
  <path d="m13.64,10.37c-2.93,-0.92 -6.13,-0.64 -8.85,0.77l-3.68,1.92c-0.45,0.24 -0.73,0.68 -0.74,1.17l0,3.78c0.12,-0.1 0.25,-0.19 0.39,-0.26m12.88,-7.38l0.12,-0.34m-0.12,0.34l8.67,2.71c0.78,0.24 1.31,0.93 1.32,1.72l0,3.57c-0.29,-0.29 -0.67,-0.52 -1.09,-0.66l-10.95,-3.42c-1.67,-0.53 -3.5,-0.37 -5.04,0.44l-5.79,3.02m0,0l0.17,0.29" id="svg_1" stroke="#050505" stroke-width="0.67"/>
  <path d="m13.64,10.37c-2.93,-0.92 -6.13,-0.64 -8.85,0.77l-3.68,1.92c-0.45,0.24 -0.73,0.68 -0.74,1.17l0,3.78c0.12,-0.1 0.25,-0.19 0.39,-0.26m12.88,-7.38l0.12,-0.34m-0.12,0.34l8.67,2.71c0.78,0.24 1.31,0.93 1.32,1.72l0,3.57c-0.29,-0.29 -0.67,-0.52 -1.09,-0.66l-10.95,-3.42c-1.67,-0.53 -3.5,-0.37 -5.04,0.44l-5.79,3.02m0,0l0.17,0.29" id="svg_2" stroke="white" stroke-opacity="0.2" stroke-width="0.67"/>
  <path d="m13.64,10.37c-2.93,-0.92 -6.13,-0.64 -8.85,0.77l-3.68,1.92c-0.45,0.24 -0.73,0.68 -0.74,1.17l0,3.78c0.12,-0.1 0.25,-0.19 0.39,-0.26m12.88,-7.38l0.12,-0.34m-0.12,0.34l8.67,2.71c0.78,0.24 1.31,0.93 1.32,1.72l0,3.57c-0.29,-0.29 -0.67,-0.52 -1.09,-0.66l-10.95,-3.42c-1.67,-0.53 -3.5,-0.37 -5.04,0.44l-5.79,3.02m0,0l0.17,0.29" id="svg_3" stroke="white" stroke-opacity="0.2" stroke-width="0.67"/>
  <path d="m13.64,10.37c-2.93,-0.92 -6.13,-0.64 -8.85,0.77l-3.68,1.92c-0.45,0.24 -0.73,0.68 -0.74,1.17l0,3.78c0.12,-0.1 0.25,-0.19 0.39,-0.26m12.88,-7.38l0.12,-0.34m-0.12,0.34l8.67,2.71c0.78,0.24 1.31,0.93 1.32,1.72l0,3.57c-0.29,-0.29 -0.67,-0.52 -1.09,-0.66l-10.95,-3.42c-1.67,-0.53 -3.5,-0.37 -5.04,0.44l-5.79,3.02m0,0l0.17,0.29" id="svg_4" stroke="white" stroke-opacity="0.2" stroke-width="0.67"/>
  <path d="m0,19.03l0,-5.3c0.01,0.94 0.65,1.76 1.58,2.05l8.66,2.71c3.03,0.95 6.34,0.66 9.14,-0.8l3.68,-1.92c0.57,-0.29 0.93,-0.85 0.94,-1.47l0,5.3c-0.01,0.61 -0.37,1.18 -0.94,1.47l-3.68,1.92c-2.8,1.46 -6.11,1.75 -9.14,0.8l-8.66,-2.71c-0.93,-0.29 -1.57,-1.11 -1.58,-2.05z" fill="#050505" id="svg_5"/>
  <path d="m0,19.03l0,-5.3c0.01,0.94 0.65,1.76 1.58,2.05l8.66,2.71c3.03,0.95 6.34,0.66 9.14,-0.8l3.68,-1.92c0.57,-0.29 0.93,-0.85 0.94,-1.47l0,5.3c-0.01,0.61 -0.37,1.18 -0.94,1.47l-3.68,1.92c-2.8,1.46 -6.11,1.75 -9.14,0.8l-8.66,-2.71c-0.93,-0.29 -1.57,-1.11 -1.58,-2.05z" fill="white" fill-opacity="0.2" id="svg_6"/>
  <path d="m0,19.03l0,-5.3c0.01,0.94 0.65,1.76 1.58,2.05l8.66,2.71c3.03,0.95 6.34,0.66 9.14,-0.8l3.68,-1.92c0.57,-0.29 0.93,-0.85 0.94,-1.47l0,5.3c-0.01,0.61 -0.37,1.18 -0.94,1.47l-3.68,1.92c-2.8,1.46 -6.11,1.75 -9.14,0.8l-8.66,-2.71c-0.93,-0.29 -1.57,-1.11 -1.58,-2.05z" fill="white" fill-opacity="0.2" id="svg_7"/>
  <path d="m0,19.03l0,-5.3c0.01,0.94 0.65,1.76 1.58,2.05l8.66,2.71c3.03,0.95 6.34,0.66 9.14,-0.8l3.68,-1.92c0.57,-0.29 0.93,-0.85 0.94,-1.47l0,5.3c-0.01,0.61 -0.37,1.18 -0.94,1.47l-3.68,1.92c-2.8,1.46 -6.11,1.75 -9.14,0.8l-8.66,-2.71c-0.93,-0.29 -1.57,-1.11 -1.58,-2.05z" fill="white" fill-opacity="0.2" id="svg_8"/>
  <path d="m13.64,0.87c-2.93,-0.92 -6.13,-0.64 -8.85,0.78l-3.68,1.92c-0.45,0.23 -0.73,0.68 -0.74,1.16l0,3.78c0.12,-0.1 0.25,-0.18 0.39,-0.26l5.79,-3.02c1.54,-0.8 3.37,-0.96 5.04,-0.44l10.95,3.43c0.42,0.13 0.8,0.36 1.09,0.66l0,-3.58c-0.01,-0.78 -0.54,-1.47 -1.32,-1.72l-8.67,-2.71zm0,0l0.12,-0.33" id="svg_9" stroke="#050505" stroke-width="0.67"/>
  <path d="m13.64,0.87c-2.93,-0.92 -6.13,-0.64 -8.85,0.78l-3.68,1.92c-0.45,0.23 -0.73,0.68 -0.74,1.16l0,3.78c0.12,-0.1 0.25,-0.18 0.39,-0.26l5.79,-3.02c1.54,-0.8 3.37,-0.96 5.04,-0.44l10.95,3.43c0.42,0.13 0.8,0.36 1.09,0.66l0,-3.58c-0.01,-0.78 -0.54,-1.47 -1.32,-1.72l-8.67,-2.71zm0,0l0.12,-0.33" id="svg_10" stroke="white" stroke-opacity="0.2" stroke-width="0.67"/>
  <path d="m13.64,0.87c-2.93,-0.92 -6.13,-0.64 -8.85,0.78l-3.68,1.92c-0.45,0.23 -0.73,0.68 -0.74,1.16l0,3.78c0.12,-0.1 0.25,-0.18 0.39,-0.26l5.79,-3.02c1.54,-0.8 3.37,-0.96 5.04,-0.44l10.95,3.43c0.42,0.13 0.8,0.36 1.09,0.66l0,-3.58c-0.01,-0.78 -0.54,-1.47 -1.32,-1.72l-8.67,-2.71zm0,0l0.12,-0.33" id="svg_11" stroke="white" stroke-opacity="0.2" stroke-width="0.67"/>
  <path d="m13.64,0.87c-2.93,-0.92 -6.13,-0.64 -8.85,0.78l-3.68,1.92c-0.45,0.23 -0.73,0.68 -0.74,1.16l0,3.78c0.12,-0.1 0.25,-0.18 0.39,-0.26l5.79,-3.02c1.54,-0.8 3.37,-0.96 5.04,-0.44l10.95,3.43c0.42,0.13 0.8,0.36 1.09,0.66l0,-3.58c-0.01,-0.78 -0.54,-1.47 -1.32,-1.72l-8.67,-2.71zm0,0l0.12,-0.33" id="svg_12" stroke="white" stroke-opacity="0.2" stroke-width="0.67"/>
  <path d="m0,9.54l0,-5.3c0.01,0.93 0.65,1.75 1.58,2.04l8.66,2.72c3.03,0.94 6.34,0.65 9.14,-0.81l3.68,-1.92c0.57,-0.29 0.93,-0.85 0.94,-1.46l0,5.29c-0.01,0.62 -0.37,1.18 -0.94,1.47l-3.68,1.92c-2.8,1.46 -6.11,1.75 -9.14,0.81l-8.66,-2.72c-0.93,-0.29 -1.57,-1.11 -1.58,-2.04z" fill="#050505" id="svg_13"/>
  <path d="m0,9.54l0,-5.3c0.01,0.93 0.65,1.75 1.58,2.04l8.66,2.72c3.03,0.94 6.34,0.65 9.14,-0.81l3.68,-1.92c0.57,-0.29 0.93,-0.85 0.94,-1.46l0,5.29c-0.01,0.62 -0.37,1.18 -0.94,1.47l-3.68,1.92c-2.8,1.46 -6.11,1.75 -9.14,0.81l-8.66,-2.72c-0.93,-0.29 -1.57,-1.11 -1.58,-2.04z" fill="white" fill-opacity="0.2" id="svg_14"/>
  <path d="m0,9.54l0,-5.3c0.01,0.93 0.65,1.75 1.58,2.04l8.66,2.72c3.03,0.94 6.34,0.65 9.14,-0.81l3.68,-1.92c0.57,-0.29 0.93,-0.85 0.94,-1.46l0,5.29c-0.01,0.62 -0.37,1.18 -0.94,1.47l-3.68,1.92c-2.8,1.46 -6.11,1.75 -9.14,0.81l-8.66,-2.72c-0.93,-0.29 -1.57,-1.11 -1.58,-2.04z" fill="white" fill-opacity="0.2" id="svg_15"/>
  <path d="m0,9.54l0,-5.3c0.01,0.93 0.65,1.75 1.58,2.04l8.66,2.72c3.03,0.94 6.34,0.65 9.14,-0.81l3.68,-1.92c0.57,-0.29 0.93,-0.85 0.94,-1.46l0,5.29c-0.01,0.62 -0.37,1.18 -0.94,1.47l-3.68,1.92c-2.8,1.46 -6.11,1.75 -9.14,0.81l-8.66,-2.72c-0.93,-0.29 -1.57,-1.11 -1.58,-2.04z" fill="white" fill-opacity="0.2" id="svg_16"/>
  <path d="m45.6,22.73c-0.73,0 -1.39,-0.13 -1.99,-0.39c-0.6,-0.28 -1.07,-0.73 -1.43,-1.34c-0.33,-0.64 -0.49,-1.47 -0.47,-2.5l0.08,-7.02c0,-0.41 -0.06,-0.71 -0.19,-0.9c-0.13,-0.19 -0.37,-0.32 -0.7,-0.39l-0.34,-0.11l0,-0.51l4.79,-0.92l0.31,0.31l-0.14,3.94l0,6.36c0,0.63 0.16,1.1 0.5,1.4c0.35,0.28 0.79,0.42 1.32,0.42c0.54,0 1.02,-0.07 1.45,-0.22c0.45,-0.17 0.91,-0.41 1.37,-0.73l0.09,-8.63c0,-0.43 -0.07,-0.72 -0.2,-0.89c-0.11,-0.17 -0.33,-0.3 -0.67,-0.39l-0.31,-0.09l0,-0.5l4.68,-0.98l0.31,0.31l-0.09,3.94l0,7.34c0,0.39 0.05,0.71 0.14,0.95c0.11,0.23 0.35,0.39 0.7,0.51l0.37,0.11l0,0.53l-4.74,0.28l-0.25,-1.76c-0.63,0.54 -1.32,0.99 -2.07,1.34c-0.75,0.35 -1.59,0.53 -2.52,0.53zm10.49,-0.39l0,-0.53l0.75,-0.17c0.41,-0.09 0.74,-0.22 0.98,-0.39c0.26,-0.17 0.52,-0.42 0.76,-0.76l3.05,-4.25l-3.61,-5.72c-0.19,-0.28 -0.37,-0.49 -0.56,-0.64c-0.17,-0.15 -0.41,-0.26 -0.73,-0.34l-0.48,-0.11l0,-0.53l7,0l0,0.53l-0.42,0.11c-0.33,0.08 -0.54,0.23 -0.61,0.45c-0.06,0.21 0.01,0.46 0.19,0.76l2.16,3.27l2.3,-3.19c0.2,-0.3 0.3,-0.56 0.28,-0.78c0,-0.23 -0.18,-0.38 -0.54,-0.45l-0.61,-0.17l0,-0.53l4.31,0l0,0.53l-0.67,0.14c-0.39,0.1 -0.7,0.24 -0.93,0.42c-0.22,0.17 -0.45,0.42 -0.7,0.76l-2.99,3.95l3.67,5.71c0.43,0.63 1.02,1.05 1.79,1.26l0.56,0.14l0,0.53l-7.53,0l0,-0.53l0.42,-0.09c0.33,-0.09 0.54,-0.25 0.61,-0.47c0.1,-0.23 0.04,-0.48 -0.17,-0.76l-2.26,-3.53l-2.47,3.5c-0.2,0.3 -0.27,0.56 -0.19,0.79c0.07,0.22 0.27,0.37 0.58,0.45l0.51,0.11l0,0.53l-4.45,0zm19.47,0.39c-0.65,0 -1.21,-0.22 -1.68,-0.67c-0.44,-0.45 -0.67,-0.99 -0.67,-1.62c0,-0.66 0.23,-1.22 0.67,-1.68c0.47,-0.47 1.03,-0.7 1.68,-0.7c0.66,0 1.21,0.23 1.66,0.7c0.46,0.46 0.7,1.02 0.7,1.68c0,0.63 -0.24,1.17 -0.7,1.62c-0.45,0.45 -1,0.67 -1.66,0.67zm8.59,-0.31l-4.92,-11.84c-0.21,-0.52 -0.57,-0.86 -1.1,-1.01l-0.58,-0.14l0,-0.53l7.08,0l0,0.53l-0.73,0.17c-0.59,0.15 -0.77,0.53 -0.53,1.15l2.94,7.81l2.75,-7.76c0.09,-0.31 0.11,-0.57 0.05,-0.75c-0.04,-0.21 -0.21,-0.35 -0.53,-0.42l-0.81,-0.2l0,-0.53l4.25,0l0,0.53l-0.92,0.23c-0.54,0.13 -0.91,0.46 -1.09,1l-4.23,11.76l-1.63,0zm12.04,0.31c-1.06,0 -1.97,-0.3 -2.72,-0.89c-0.72,-0.62 -1.09,-1.5 -1.09,-2.64c0,-0.89 0.43,-1.71 1.29,-2.46c0.88,-0.77 2.25,-1.33 4.12,-1.68c0.31,-0.07 0.68,-0.14 1.09,-0.2c0.43,-0.07 0.85,-0.15 1.26,-0.22l0,-1.99c0,-1.27 -0.16,-2.14 -0.48,-2.63c-0.31,-0.49 -0.82,-0.73 -1.51,-0.73l-0.08,0c-0.43,0 -0.78,0.14 -1.04,0.42c-0.24,0.26 -0.4,0.7 -0.47,1.32l-0.09,0.36c-0.05,0.75 -0.25,1.3 -0.59,1.65c-0.33,0.34 -0.75,0.51 -1.26,0.51c-0.46,0 -0.86,-0.14 -1.17,-0.42c-0.3,-0.3 -0.45,-0.68 -0.45,-1.15c0,-0.77 0.26,-1.41 0.78,-1.93c0.53,-0.52 1.22,-0.92 2.08,-1.18c0.87,-0.26 1.81,-0.39 2.82,-0.39c1.66,0 2.93,0.4 3.81,1.2c0.88,0.81 1.32,2.11 1.32,3.92l0,6.25c0,0.8 0.38,1.2 1.14,1.2l0.65,0l0.28,0.31c-0.34,0.43 -0.71,0.76 -1.12,0.98c-0.41,0.24 -0.97,0.36 -1.68,0.36c-0.8,0 -1.45,-0.18 -1.93,-0.56c-0.47,-0.39 -0.78,-0.9 -0.93,-1.54c-0.59,0.64 -1.18,1.15 -1.76,1.54c-0.58,0.4 -1.34,0.59 -2.27,0.59zm1.62,-1.79c0.38,0 0.73,-0.08 1.07,-0.25c0.34,-0.17 0.76,-0.45 1.26,-0.84l0,-4.48c-0.49,0.07 -0.98,0.17 -1.48,0.28c-0.81,0.18 -1.46,0.53 -1.97,1.03c-0.48,0.51 -0.72,1.19 -0.72,2.05c0,0.74 0.17,1.3 0.5,1.68c0.36,0.35 0.8,0.53 1.34,0.53zm13.52,1.79c-0.72,0 -1.39,-0.13 -1.98,-0.39c-0.6,-0.28 -1.08,-0.73 -1.43,-1.34c-0.34,-0.64 -0.5,-1.47 -0.48,-2.5l0.09,-7.02c0,-0.41 -0.07,-0.71 -0.2,-0.9c-0.13,-0.19 -0.36,-0.32 -0.7,-0.39l-0.34,-0.11l0,-0.51l4.79,-0.92l0.31,0.31l-0.14,3.94l0,6.36c0,0.63 0.17,1.1 0.5,1.4c0.36,0.28 0.8,0.42 1.32,0.42c0.54,0 1.03,-0.07 1.46,-0.22c0.44,-0.17 0.9,-0.41 1.37,-0.73l0.08,-8.63c0,-0.43 -0.06,-0.72 -0.19,-0.89c-0.12,-0.17 -0.34,-0.3 -0.68,-0.39l-0.3,-0.09l0,-0.5l4.67,-0.98l0.31,0.31l-0.08,3.94l0,7.34c0,0.39 0.04,0.71 0.14,0.95c0.11,0.23 0.34,0.39 0.7,0.51l0.36,0.11l0,0.53l-4.73,0.28l-0.25,-1.76c-0.64,0.54 -1.33,0.99 -2.08,1.34c-0.74,0.35 -1.58,0.53 -2.52,0.53zm10.77,-0.39l0,-0.53l0.42,-0.11c0.62,-0.21 0.92,-0.68 0.92,-1.4c0,-0.64 0,-1.27 0,-1.91c0.02,-0.65 0.03,-1.3 0.03,-1.93l0,-10.64c0,-0.39 -0.06,-0.68 -0.19,-0.87c-0.13,-0.2 -0.39,-0.35 -0.76,-0.45l-0.42,-0.11l0,-0.53l4.9,-1.18l0.37,0.26l-0.12,3.94l0,13.42c0.02,0.37 0.1,0.68 0.23,0.92c0.15,0.22 0.4,0.38 0.75,0.48l0.4,0.11l0,0.53l-6.53,0zm13.06,0.39c-1.16,0 -2.07,-0.28 -2.75,-0.84c-0.65,-0.58 -0.98,-1.51 -0.98,-2.8c0,-0.45 0,-0.87 0,-1.26c0.02,-0.41 0.03,-0.88 0.03,-1.43l0,-6.63l-1.99,0l0,-0.62l0.76,-0.11c0.54,-0.09 1,-0.26 1.37,-0.5c0.39,-0.25 0.75,-0.58 1.06,-1.01l1.83,-2.52l0.83,0l-0.08,3.89l3.19,0l0,0.87l-3.22,0l0,9.55c0,0.67 0.14,1.17 0.42,1.51c0.3,0.33 0.66,0.5 1.09,0.5c0.38,0 0.71,-0.08 1.01,-0.25c0.3,-0.19 0.6,-0.43 0.9,-0.73l0.36,0.42c-0.35,0.62 -0.85,1.1 -1.48,1.46c-0.64,0.33 -1.42,0.5 -2.35,0.5z" fill="#050505" id="svg_17"/>
  <path d="m45.6,22.73c-0.73,0 -1.39,-0.13 -1.99,-0.39c-0.6,-0.28 -1.07,-0.73 -1.43,-1.34c-0.33,-0.64 -0.49,-1.47 -0.47,-2.5l0.08,-7.02c0,-0.41 -0.06,-0.71 -0.19,-0.9c-0.13,-0.19 -0.37,-0.32 -0.7,-0.39l-0.34,-0.11l0,-0.51l4.79,-0.92l0.31,0.31l-0.14,3.94l0,6.36c0,0.63 0.16,1.1 0.5,1.4c0.35,0.28 0.79,0.42 1.32,0.42c0.54,0 1.02,-0.07 1.45,-0.22c0.45,-0.17 0.91,-0.41 1.37,-0.73l0.09,-8.63c0,-0.43 -0.07,-0.72 -0.2,-0.89c-0.11,-0.17 -0.33,-0.3 -0.67,-0.39l-0.31,-0.09l0,-0.5l4.68,-0.98l0.31,0.31l-0.09,3.94l0,7.34c0,0.39 0.05,0.71 0.14,0.95c0.11,0.23 0.35,0.39 0.7,0.51l0.37,0.11l0,0.53l-4.74,0.28l-0.25,-1.76c-0.63,0.54 -1.32,0.99 -2.07,1.34c-0.75,0.35 -1.59,0.53 -2.52,0.53zm10.49,-0.39l0,-0.53l0.75,-0.17c0.41,-0.09 0.74,-0.22 0.98,-0.39c0.26,-0.17 0.52,-0.42 0.76,-0.76l3.05,-4.25l-3.61,-5.72c-0.19,-0.28 -0.37,-0.49 -0.56,-0.64c-0.17,-0.15 -0.41,-0.26 -0.73,-0.34l-0.48,-0.11l0,-0.53l7,0l0,0.53l-0.42,0.11c-0.33,0.08 -0.54,0.23 -0.61,0.45c-0.06,0.21 0.01,0.46 0.19,0.76l2.16,3.27l2.3,-3.19c0.2,-0.3 0.3,-0.56 0.28,-0.78c0,-0.23 -0.18,-0.38 -0.54,-0.45l-0.61,-0.17l0,-0.53l4.31,0l0,0.53l-0.67,0.14c-0.39,0.1 -0.7,0.24 -0.93,0.42c-0.22,0.17 -0.45,0.42 -0.7,0.76l-2.99,3.95l3.67,5.71c0.43,0.63 1.02,1.05 1.79,1.26l0.56,0.14l0,0.53l-7.53,0l0,-0.53l0.42,-0.09c0.33,-0.09 0.54,-0.25 0.61,-0.47c0.1,-0.23 0.04,-0.48 -0.17,-0.76l-2.26,-3.53l-2.47,3.5c-0.2,0.3 -0.27,0.56 -0.19,0.79c0.07,0.22 0.27,0.37 0.58,0.45l0.51,0.11l0,0.53l-4.45,0zm19.47,0.39c-0.65,0 -1.21,-0.22 -1.68,-0.67c-0.44,-0.45 -0.67,-0.99 -0.67,-1.62c0,-0.66 0.23,-1.22 0.67,-1.68c0.47,-0.47 1.03,-0.7 1.68,-0.7c0.66,0 1.21,0.23 1.66,0.7c0.46,0.46 0.7,1.02 0.7,1.68c0,0.63 -0.24,1.17 -0.7,1.62c-0.45,0.45 -1,0.67 -1.66,0.67zm8.59,-0.31l-4.92,-11.84c-0.21,-0.52 -0.57,-0.86 -1.1,-1.01l-0.58,-0.14l0,-0.53l7.08,0l0,0.53l-0.73,0.17c-0.59,0.15 -0.77,0.53 -0.53,1.15l2.94,7.81l2.75,-7.76c0.09,-0.31 0.11,-0.57 0.05,-0.75c-0.04,-0.21 -0.21,-0.35 -0.53,-0.42l-0.81,-0.2l0,-0.53l4.25,0l0,0.53l-0.92,0.23c-0.54,0.13 -0.91,0.46 -1.09,1l-4.23,11.76l-1.63,0zm12.04,0.31c-1.06,0 -1.97,-0.3 -2.72,-0.89c-0.72,-0.62 -1.09,-1.5 -1.09,-2.64c0,-0.89 0.43,-1.71 1.29,-2.46c0.88,-0.77 2.25,-1.33 4.12,-1.68c0.31,-0.07 0.68,-0.14 1.09,-0.2c0.43,-0.07 0.85,-0.15 1.26,-0.22l0,-1.99c0,-1.27 -0.16,-2.14 -0.48,-2.63c-0.31,-0.49 -0.82,-0.73 -1.51,-0.73l-0.08,0c-0.43,0 -0.78,0.14 -1.04,0.42c-0.24,0.26 -0.4,0.7 -0.47,1.32l-0.09,0.36c-0.05,0.75 -0.25,1.3 -0.59,1.65c-0.33,0.34 -0.75,0.51 -1.26,0.51c-0.46,0 -0.86,-0.14 -1.17,-0.42c-0.3,-0.3 -0.45,-0.68 -0.45,-1.15c0,-0.77 0.26,-1.41 0.78,-1.93c0.53,-0.52 1.22,-0.92 2.08,-1.18c0.87,-0.26 1.81,-0.39 2.82,-0.39c1.66,0 2.93,0.4 3.81,1.2c0.88,0.81 1.32,2.11 1.32,3.92l0,6.25c0,0.8 0.38,1.2 1.14,1.2l0.65,0l0.28,0.31c-0.34,0.43 -0.71,0.76 -1.12,0.98c-0.41,0.24 -0.97,0.36 -1.68,0.36c-0.8,0 -1.45,-0.18 -1.93,-0.56c-0.47,-0.39 -0.78,-0.9 -0.93,-1.54c-0.59,0.64 -1.18,1.15 -1.76,1.54c-0.58,0.4 -1.34,0.59 -2.27,0.59zm1.62,-1.79c0.38,0 0.73,-0.08 1.07,-0.25c0.34,-0.17 0.76,-0.45 1.26,-0.84l0,-4.48c-0.49,0.07 -0.98,0.17 -1.48,0.28c-0.81,0.18 -1.46,0.53 -1.97,1.03c-0.48,0.51 -0.72,1.19 -0.72,2.05c0,0.74 0.17,1.3 0.5,1.68c0.36,0.35 0.8,0.53 1.34,0.53zm13.52,1.79c-0.72,0 -1.39,-0.13 -1.98,-0.39c-0.6,-0.28 -1.08,-0.73 -1.43,-1.34c-0.34,-0.64 -0.5,-1.47 -0.48,-2.5l0.09,-7.02c0,-0.41 -0.07,-0.71 -0.2,-0.9c-0.13,-0.19 -0.36,-0.32 -0.7,-0.39l-0.34,-0.11l0,-0.51l4.79,-0.92l0.31,0.31l-0.14,3.94l0,6.36c0,0.63 0.17,1.1 0.5,1.4c0.36,0.28 0.8,0.42 1.32,0.42c0.54,0 1.03,-0.07 1.46,-0.22c0.44,-0.17 0.9,-0.41 1.37,-0.73l0.08,-8.63c0,-0.43 -0.06,-0.72 -0.19,-0.89c-0.12,-0.17 -0.34,-0.3 -0.68,-0.39l-0.3,-0.09l0,-0.5l4.67,-0.98l0.31,0.31l-0.08,3.94l0,7.34c0,0.39 0.04,0.71 0.14,0.95c0.11,0.23 0.34,0.39 0.7,0.51l0.36,0.11l0,0.53l-4.73,0.28l-0.25,-1.76c-0.64,0.54 -1.33,0.99 -2.08,1.34c-0.74,0.35 -1.58,0.53 -2.52,0.53zm10.77,-0.39l0,-0.53l0.42,-0.11c0.62,-0.21 0.92,-0.68 0.92,-1.4c0,-0.64 0,-1.27 0,-1.91c0.02,-0.65 0.03,-1.3 0.03,-1.93l0,-10.64c0,-0.39 -0.06,-0.68 -0.19,-0.87c-0.13,-0.2 -0.39,-0.35 -0.76,-0.45l-0.42,-0.11l0,-0.53l4.9,-1.18l0.37,0.26l-0.12,3.94l0,13.42c0.02,0.37 0.1,0.68 0.23,0.92c0.15,0.22 0.4,0.38 0.75,0.48l0.4,0.11l0,0.53l-6.53,0zm13.06,0.39c-1.16,0 -2.07,-0.28 -2.75,-0.84c-0.65,-0.58 -0.98,-1.51 -0.98,-2.8c0,-0.45 0,-0.87 0,-1.26c0.02,-0.41 0.03,-0.88 0.03,-1.43l0,-6.63l-1.99,0l0,-0.62l0.76,-0.11c0.54,-0.09 1,-0.26 1.37,-0.5c0.39,-0.25 0.75,-0.58 1.06,-1.01l1.83,-2.52l0.83,0l-0.08,3.89l3.19,0l0,0.87l-3.22,0l0,9.55c0,0.67 0.14,1.17 0.42,1.51c0.3,0.33 0.66,0.5 1.09,0.5c0.38,0 0.71,-0.08 1.01,-0.25c0.3,-0.19 0.6,-0.43 0.9,-0.73l0.36,0.42c-0.35,0.62 -0.85,1.1 -1.48,1.46c-0.64,0.33 -1.42,0.5 -2.35,0.5z" fill="white" fill-opacity="0.2" id="svg_18"/>
  <path d="m45.6,22.73c-0.73,0 -1.39,-0.13 -1.99,-0.39c-0.6,-0.28 -1.07,-0.73 -1.43,-1.34c-0.33,-0.64 -0.49,-1.47 -0.47,-2.5l0.08,-7.02c0,-0.41 -0.06,-0.71 -0.19,-0.9c-0.13,-0.19 -0.37,-0.32 -0.7,-0.39l-0.34,-0.11l0,-0.51l4.79,-0.92l0.31,0.31l-0.14,3.94l0,6.36c0,0.63 0.16,1.1 0.5,1.4c0.35,0.28 0.79,0.42 1.32,0.42c0.54,0 1.02,-0.07 1.45,-0.22c0.45,-0.17 0.91,-0.41 1.37,-0.73l0.09,-8.63c0,-0.43 -0.07,-0.72 -0.2,-0.89c-0.11,-0.17 -0.33,-0.3 -0.67,-0.39l-0.31,-0.09l0,-0.5l4.68,-0.98l0.31,0.31l-0.09,3.94l0,7.34c0,0.39 0.05,0.71 0.14,0.95c0.11,0.23 0.35,0.39 0.7,0.51l0.37,0.11l0,0.53l-4.74,0.28l-0.25,-1.76c-0.63,0.54 -1.32,0.99 -2.07,1.34c-0.75,0.35 -1.59,0.53 -2.52,0.53zm10.49,-0.39l0,-0.53l0.75,-0.17c0.41,-0.09 0.74,-0.22 0.98,-0.39c0.26,-0.17 0.52,-0.42 0.76,-0.76l3.05,-4.25l-3.61,-5.72c-0.19,-0.28 -0.37,-0.49 -0.56,-0.64c-0.17,-0.15 -0.41,-0.26 -0.73,-0.34l-0.48,-0.11l0,-0.53l7,0l0,0.53l-0.42,0.11c-0.33,0.08 -0.54,0.23 -0.61,0.45c-0.06,0.21 0.01,0.46 0.19,0.76l2.16,3.27l2.3,-3.19c0.2,-0.3 0.3,-0.56 0.28,-0.78c0,-0.23 -0.18,-0.38 -0.54,-0.45l-0.61,-0.17l0,-0.53l4.31,0l0,0.53l-0.67,0.14c-0.39,0.1 -0.7,0.24 -0.93,0.42c-0.22,0.17 -0.45,0.42 -0.7,0.76l-2.99,3.95l3.67,5.71c0.43,0.63 1.02,1.05 1.79,1.26l0.56,0.14l0,0.53l-7.53,0l0,-0.53l0.42,-0.09c0.33,-0.09 0.54,-0.25 0.61,-0.47c0.1,-0.23 0.04,-0.48 -0.17,-0.76l-2.26,-3.53l-2.47,3.5c-0.2,0.3 -0.27,0.56 -0.19,0.79c0.07,0.22 0.27,0.37 0.58,0.45l0.51,0.11l0,0.53l-4.45,0zm19.47,0.39c-0.65,0 -1.21,-0.22 -1.68,-0.67c-0.44,-0.45 -0.67,-0.99 -0.67,-1.62c0,-0.66 0.23,-1.22 0.67,-1.68c0.47,-0.47 1.03,-0.7 1.68,-0.7c0.66,0 1.21,0.23 1.66,0.7c0.46,0.46 0.7,1.02 0.7,1.68c0,0.63 -0.24,1.17 -0.7,1.62c-0.45,0.45 -1,0.67 -1.66,0.67zm8.59,-0.31l-4.92,-11.84c-0.21,-0.52 -0.57,-0.86 -1.1,-1.01l-0.58,-0.14l0,-0.53l7.08,0l0,0.53l-0.73,0.17c-0.59,0.15 -0.77,0.53 -0.53,1.15l2.94,7.81l2.75,-7.76c0.09,-0.31 0.11,-0.57 0.05,-0.75c-0.04,-0.21 -0.21,-0.35 -0.53,-0.42l-0.81,-0.2l0,-0.53l4.25,0l0,0.53l-0.92,0.23c-0.54,0.13 -0.91,0.46 -1.09,1l-4.23,11.76l-1.63,0zm12.04,0.31c-1.06,0 -1.97,-0.3 -2.72,-0.89c-0.72,-0.62 -1.09,-1.5 -1.09,-2.64c0,-0.89 0.43,-1.71 1.29,-2.46c0.88,-0.77 2.25,-1.33 4.12,-1.68c0.31,-0.07 0.68,-0.14 1.09,-0.2c0.43,-0.07 0.85,-0.15 1.26,-0.22l0,-1.99c0,-1.27 -0.16,-2.14 -0.48,-2.63c-0.31,-0.49 -0.82,-0.73 -1.51,-0.73l-0.08,0c-0.43,0 -0.78,0.14 -1.04,0.42c-0.24,0.26 -0.4,0.7 -0.47,1.32l-0.09,0.36c-0.05,0.75 -0.25,1.3 -0.59,1.65c-0.33,0.34 -0.75,0.51 -1.26,0.51c-0.46,0 -0.86,-0.14 -1.17,-0.42c-0.3,-0.3 -0.45,-0.68 -0.45,-1.15c0,-0.77 0.26,-1.41 0.78,-1.93c0.53,-0.52 1.22,-0.92 2.08,-1.18c0.87,-0.26 1.81,-0.39 2.82,-0.39c1.66,0 2.93,0.4 3.81,1.2c0.88,0.81 1.32,2.11 1.32,3.92l0,6.25c0,0.8 0.38,1.2 1.14,1.2l0.65,0l0.28,0.31c-0.34,0.43 -0.71,0.76 -1.12,0.98c-0.41,0.24 -0.97,0.36 -1.68,0.36c-0.8,0 -1.45,-0.18 -1.93,-0.56c-0.47,-0.39 -0.78,-0.9 -0.93,-1.54c-0.59,0.64 -1.18,1.15 -1.76,1.54c-0.58,0.4 -1.34,0.59 -2.27,0.59zm1.62,-1.79c0.38,0 0.73,-0.08 1.07,-0.25c0.34,-0.17 0.76,-0.45 1.26,-0.84l0,-4.48c-0.49,0.07 -0.98,0.17 -1.48,0.28c-0.81,0.18 -1.46,0.53 -1.97,1.03c-0.48,0.51 -0.72,1.19 -0.72,2.05c0,0.74 0.17,1.3 0.5,1.68c0.36,0.35 0.8,0.53 1.34,0.53zm13.52,1.79c-0.72,0 -1.39,-0.13 -1.98,-0.39c-0.6,-0.28 -1.08,-0.73 -1.43,-1.34c-0.34,-0.64 -0.5,-1.47 -0.48,-2.5l0.09,-7.02c0,-0.41 -0.07,-0.71 -0.2,-0.9c-0.13,-0.19 -0.36,-0.32 -0.7,-0.39l-0.34,-0.11l0,-0.51l4.79,-0.92l0.31,0.31l-0.14,3.94l0,6.36c0,0.63 0.17,1.1 0.5,1.4c0.36,0.28 0.8,0.42 1.32,0.42c0.54,0 1.03,-0.07 1.46,-0.22c0.44,-0.17 0.9,-0.41 1.37,-0.73l0.08,-8.63c0,-0.43 -0.06,-0.72 -0.19,-0.89c-0.12,-0.17 -0.34,-0.3 -0.68,-0.39l-0.3,-0.09l0,-0.5l4.67,-0.98l0.31,0.31l-0.08,3.94l0,7.34c0,0.39 0.04,0.71 0.14,0.95c0.11,0.23 0.34,0.39 0.7,0.51l0.36,0.11l0,0.53l-4.73,0.28l-0.25,-1.76c-0.64,0.54 -1.33,0.99 -2.08,1.34c-0.74,0.35 -1.58,0.53 -2.52,0.53zm10.77,-0.39l0,-0.53l0.42,-0.11c0.62,-0.21 0.92,-0.68 0.92,-1.4c0,-0.64 0,-1.27 0,-1.91c0.02,-0.65 0.03,-1.3 0.03,-1.93l0,-10.64c0,-0.39 -0.06,-0.68 -0.19,-0.87c-0.13,-0.2 -0.39,-0.35 -0.76,-0.45l-0.42,-0.11l0,-0.53l4.9,-1.18l0.37,0.26l-0.12,3.94l0,13.42c0.02,0.37 0.1,0.68 0.23,0.92c0.15,0.22 0.4,0.38 0.75,0.48l0.4,0.11l0,0.53l-6.53,0zm13.06,0.39c-1.16,0 -2.07,-0.28 -2.75,-0.84c-0.65,-0.58 -0.98,-1.51 -0.98,-2.8c0,-0.45 0,-0.87 0,-1.26c0.02,-0.41 0.03,-0.88 0.03,-1.43l0,-6.63l-1.99,0l0,-0.62l0.76,-0.11c0.54,-0.09 1,-0.26 1.37,-0.5c0.39,-0.25 0.75,-0.58 1.06,-1.01l1.83,-2.52l0.83,0l-0.08,3.89l3.19,0l0,0.87l-3.22,0l0,9.55c0,0.67 0.14,1.17 0.42,1.51c0.3,0.33 0.66,0.5 1.09,0.5c0.38,0 0.71,-0.08 1.01,-0.25c0.3,-0.19 0.6,-0.43 0.9,-0.73l0.36,0.42c-0.35,0.62 -0.85,1.1 -1.48,1.46c-0.64,0.33 -1.42,0.5 -2.35,0.5z" fill="white" fill-opacity="0.2" id="svg_19"/>
  <path d="m45.6,22.73c-0.73,0 -1.39,-0.13 -1.99,-0.39c-0.6,-0.28 -1.07,-0.73 -1.43,-1.34c-0.33,-0.64 -0.49,-1.47 -0.47,-2.5l0.08,-7.02c0,-0.41 -0.06,-0.71 -0.19,-0.9c-0.13,-0.19 -0.37,-0.32 -0.7,-0.39l-0.34,-0.11l0,-0.51l4.79,-0.92l0.31,0.31l-0.14,3.94l0,6.36c0,0.63 0.16,1.1 0.5,1.4c0.35,0.28 0.79,0.42 1.32,0.42c0.54,0 1.02,-0.07 1.45,-0.22c0.45,-0.17 0.91,-0.41 1.37,-0.73l0.09,-8.63c0,-0.43 -0.07,-0.72 -0.2,-0.89c-0.11,-0.17 -0.33,-0.3 -0.67,-0.39l-0.31,-0.09l0,-0.5l4.68,-0.98l0.31,0.31l-0.09,3.94l0,7.34c0,0.39 0.05,0.71 0.14,0.95c0.11,0.23 0.35,0.39 0.7,0.51l0.37,0.11l0,0.53l-4.74,0.28l-0.25,-1.76c-0.63,0.54 -1.32,0.99 -2.07,1.34c-0.75,0.35 -1.59,0.53 -2.52,0.53zm10.49,-0.39l0,-0.53l0.75,-0.17c0.41,-0.09 0.74,-0.22 0.98,-0.39c0.26,-0.17 0.52,-0.42 0.76,-0.76l3.05,-4.25l-3.61,-5.72c-0.19,-0.28 -0.37,-0.49 -0.56,-0.64c-0.17,-0.15 -0.41,-0.26 -0.73,-0.34l-0.48,-0.11l0,-0.53l7,0l0,0.53l-0.42,0.11c-0.33,0.08 -0.54,0.23 -0.61,0.45c-0.06,0.21 0.01,0.46 0.19,0.76l2.16,3.27l2.3,-3.19c0.2,-0.3 0.3,-0.56 0.28,-0.78c0,-0.23 -0.18,-0.38 -0.54,-0.45l-0.61,-0.17l0,-0.53l4.31,0l0,0.53l-0.67,0.14c-0.39,0.1 -0.7,0.24 -0.93,0.42c-0.22,0.17 -0.45,0.42 -0.7,0.76l-2.99,3.95l3.67,5.71c0.43,0.63 1.02,1.05 1.79,1.26l0.56,0.14l0,0.53l-7.53,0l0,-0.53l0.42,-0.09c0.33,-0.09 0.54,-0.25 0.61,-0.47c0.1,-0.23 0.04,-0.48 -0.17,-0.76l-2.26,-3.53l-2.47,3.5c-0.2,0.3 -0.27,0.56 -0.19,0.79c0.07,0.22 0.27,0.37 0.58,0.45l0.51,0.11l0,0.53l-4.45,0zm19.47,0.39c-0.65,0 -1.21,-0.22 -1.68,-0.67c-0.44,-0.45 -0.67,-0.99 -0.67,-1.62c0,-0.66 0.23,-1.22 0.67,-1.68c0.47,-0.47 1.03,-0.7 1.68,-0.7c0.66,0 1.21,0.23 1.66,0.7c0.46,0.46 0.7,1.02 0.7,1.68c0,0.63 -0.24,1.17 -0.7,1.62c-0.45,0.45 -1,0.67 -1.66,0.67zm8.59,-0.31l-4.92,-11.84c-0.21,-0.52 -0.57,-0.86 -1.1,-1.01l-0.58,-0.14l0,-0.53l7.08,0l0,0.53l-0.73,0.17c-0.59,0.15 -0.77,0.53 -0.53,1.15l2.94,7.81l2.75,-7.76c0.09,-0.31 0.11,-0.57 0.05,-0.75c-0.04,-0.21 -0.21,-0.35 -0.53,-0.42l-0.81,-0.2l0,-0.53l4.25,0l0,0.53l-0.92,0.23c-0.54,0.13 -0.91,0.46 -1.09,1l-4.23,11.76l-1.63,0zm12.04,0.31c-1.06,0 -1.97,-0.3 -2.72,-0.89c-0.72,-0.62 -1.09,-1.5 -1.09,-2.64c0,-0.89 0.43,-1.71 1.29,-2.46c0.88,-0.77 2.25,-1.33 4.12,-1.68c0.31,-0.07 0.68,-0.14 1.09,-0.2c0.43,-0.07 0.85,-0.15 1.26,-0.22l0,-1.99c0,-1.27 -0.16,-2.14 -0.48,-2.63c-0.31,-0.49 -0.82,-0.73 -1.51,-0.73l-0.08,0c-0.43,0 -0.78,0.14 -1.04,0.42c-0.24,0.26 -0.4,0.7 -0.47,1.32l-0.09,0.36c-0.05,0.75 -0.25,1.3 -0.59,1.65c-0.33,0.34 -0.75,0.51 -1.26,0.51c-0.46,0 -0.86,-0.14 -1.17,-0.42c-0.3,-0.3 -0.45,-0.68 -0.45,-1.15c0,-0.77 0.26,-1.41 0.78,-1.93c0.53,-0.52 1.22,-0.92 2.08,-1.18c0.87,-0.26 1.81,-0.39 2.82,-0.39c1.66,0 2.93,0.4 3.81,1.2c0.88,0.81 1.32,2.11 1.32,3.92l0,6.25c0,0.8 0.38,1.2 1.14,1.2l0.65,0l0.28,0.31c-0.34,0.43 -0.71,0.76 -1.12,0.98c-0.41,0.24 -0.97,0.36 -1.68,0.36c-0.8,0 -1.45,-0.18 -1.93,-0.56c-0.47,-0.39 -0.78,-0.9 -0.93,-1.54c-0.59,0.64 -1.18,1.15 -1.76,1.54c-0.58,0.4 -1.34,0.59 -2.27,0.59zm1.62,-1.79c0.38,0 0.73,-0.08 1.07,-0.25c0.34,-0.17 0.76,-0.45 1.26,-0.84l0,-4.48c-0.49,0.07 -0.98,0.17 -1.48,0.28c-0.81,0.18 -1.46,0.53 -1.97,1.03c-0.48,0.51 -0.72,1.19 -0.72,2.05c0,0.74 0.17,1.3 0.5,1.68c0.36,0.35 0.8,0.53 1.34,0.53zm13.52,1.79c-0.72,0 -1.39,-0.13 -1.98,-0.39c-0.6,-0.28 -1.08,-0.73 -1.43,-1.34c-0.34,-0.64 -0.5,-1.47 -0.48,-2.5l0.09,-7.02c0,-0.41 -0.07,-0.71 -0.2,-0.9c-0.13,-0.19 -0.36,-0.32 -0.7,-0.39l-0.34,-0.11l0,-0.51l4.79,-0.92l0.31,0.31l-0.14,3.94l0,6.36c0,0.63 0.17,1.1 0.5,1.4c0.36,0.28 0.8,0.42 1.32,0.42c0.54,0 1.03,-0.07 1.46,-0.22c0.44,-0.17 0.9,-0.41 1.37,-0.73l0.08,-8.63c0,-0.43 -0.06,-0.72 -0.19,-0.89c-0.12,-0.17 -0.34,-0.3 -0.68,-0.39l-0.3,-0.09l0,-0.5l4.67,-0.98l0.31,0.31l-0.08,3.94l0,7.34c0,0.39 0.04,0.71 0.14,0.95c0.11,0.23 0.34,0.39 0.7,0.51l0.36,0.11l0,0.53l-4.73,0.28l-0.25,-1.76c-0.64,0.54 -1.33,0.99 -2.08,1.34c-0.74,0.35 -1.58,0.53 -2.52,0.53zm10.77,-0.39l0,-0.53l0.42,-0.11c0.62,-0.21 0.92,-0.68 0.92,-1.4c0,-0.64 0,-1.27 0,-1.91c0.02,-0.65 0.03,-1.3 0.03,-1.93l0,-10.64c0,-0.39 -0.06,-0.68 -0.19,-0.87c-0.13,-0.2 -0.39,-0.35 -0.76,-0.45l-0.42,-0.11l0,-0.53l4.9,-1.18l0.37,0.26l-0.12,3.94l0,13.42c0.02,0.37 0.1,0.68 0.23,0.92c0.15,0.22 0.4,0.38 0.75,0.48l0.4,0.11l0,0.53l-6.53,0zm13.06,0.39c-1.16,0 -2.07,-0.28 -2.75,-0.84c-0.65,-0.58 -0.98,-1.51 -0.98,-2.8c0,-0.45 0,-0.87 0,-1.26c0.02,-0.41 0.03,-0.88 0.03,-1.43l0,-6.63l-1.99,0l0,-0.62l0.76,-0.11c0.54,-0.09 1,-0.26 1.37,-0.5c0.39,-0.25 0.75,-0.58 1.06,-1.01l1.83,-2.52l0.83,0l-0.08,3.89l3.19,0l0,0.87l-3.22,0l0,9.55c0,0.67 0.14,1.17 0.42,1.51c0.3,0.33 0.66,0.5 1.09,0.5c0.38,0 0.71,-0.08 1.01,-0.25c0.3,-0.19 0.6,-0.43 0.9,-0.73l0.36,0.42c-0.35,0.62 -0.85,1.1 -1.48,1.46c-0.64,0.33 -1.42,0.5 -2.35,0.5z" fill="white" fill-opacity="0.2" id="svg_20"/>
 </g>
</svg>