<?xml version="1.0"?>
<svg width="24" height="24" xmlns="http://www.w3.org/2000/svg" xmlns:svg="http://www.w3.org/2000/svg">
 <g class="layer">
  <title>Layer 1</title>
  <path d="m13.64,10.37c-2.93,-0.92 -6.13,-0.64 -8.85,0.77l-3.68,1.92c-0.45,0.24 -0.73,0.68 -0.74,1.17l0,3.78c0.12,-0.1 0.25,-0.19 0.39,-0.26m12.88,-7.38l0.12,-0.34m-0.12,0.34l8.67,2.71c0.78,0.24 1.31,0.93 1.32,1.72l0,3.57c-0.29,-0.29 -0.67,-0.52 -1.09,-0.66l-10.95,-3.42c-1.67,-0.53 -3.5,-0.37 -5.04,0.44l-5.79,3.02m0,0l0.17,0.29" id="svg_1" stroke="#050505" stroke-width="0.67"/>
  <path d="m13.64,10.37c-2.93,-0.92 -6.13,-0.64 -8.85,0.77l-3.68,1.92c-0.45,0.24 -0.73,0.68 -0.74,1.17l0,3.78c0.12,-0.1 0.25,-0.19 0.39,-0.26m12.88,-7.38l0.12,-0.34m-0.12,0.34l8.67,2.71c0.78,0.24 1.31,0.93 1.32,1.72l0,3.57c-0.29,-0.29 -0.67,-0.52 -1.09,-0.66l-10.95,-3.42c-1.67,-0.53 -3.5,-0.37 -5.04,0.44l-5.79,3.02m0,0l0.17,0.29" id="svg_2" stroke="white" stroke-opacity="0.2" stroke-width="0.67"/>
  <path d="m13.64,10.37c-2.93,-0.92 -6.13,-0.64 -8.85,0.77l-3.68,1.92c-0.45,0.24 -0.73,0.68 -0.74,1.17l0,3.78c0.12,-0.1 0.25,-0.19 0.39,-0.26m12.88,-7.38l0.12,-0.34m-0.12,0.34l8.67,2.71c0.78,0.24 1.31,0.93 1.32,1.72l0,3.57c-0.29,-0.29 -0.67,-0.52 -1.09,-0.66l-10.95,-3.42c-1.67,-0.53 -3.5,-0.37 -5.04,0.44l-5.79,3.02m0,0l0.17,0.29" id="svg_3" stroke="white" stroke-opacity="0.2" stroke-width="0.67"/>
  <path d="m13.64,10.37c-2.93,-0.92 -6.13,-0.64 -8.85,0.77l-3.68,1.92c-0.45,0.24 -0.73,0.68 -0.74,1.17l0,3.78c0.12,-0.1 0.25,-0.19 0.39,-0.26m12.88,-7.38l0.12,-0.34m-0.12,0.34l8.67,2.71c0.78,0.24 1.31,0.93 1.32,1.72l0,3.57c-0.29,-0.29 -0.67,-0.52 -1.09,-0.66l-10.95,-3.42c-1.67,-0.53 -3.5,-0.37 -5.04,0.44l-5.79,3.02m0,0l0.17,0.29" id="svg_4" stroke="white" stroke-opacity="0.2" stroke-width="0.67"/>
  <path d="m0,19.03l0,-5.3c0.01,0.94 0.65,1.76 1.58,2.05l8.66,2.71c3.03,0.95 6.34,0.66 9.14,-0.8l3.68,-1.92c0.57,-0.29 0.93,-0.85 0.94,-1.47l0,5.3c-0.01,0.61 -0.37,1.18 -0.94,1.47l-3.68,1.92c-2.8,1.46 -6.11,1.75 -9.14,0.8l-8.66,-2.71c-0.93,-0.29 -1.57,-1.11 -1.58,-2.05z" fill="#050505" id="svg_5"/>
  <path d="m0,19.03l0,-5.3c0.01,0.94 0.65,1.76 1.58,2.05l8.66,2.71c3.03,0.95 6.34,0.66 9.14,-0.8l3.68,-1.92c0.57,-0.29 0.93,-0.85 0.94,-1.47l0,5.3c-0.01,0.61 -0.37,1.18 -0.94,1.47l-3.68,1.92c-2.8,1.46 -6.11,1.75 -9.14,0.8l-8.66,-2.71c-0.93,-0.29 -1.57,-1.11 -1.58,-2.05z" fill="white" fill-opacity="0.2" id="svg_6"/>
  <path d="m0,19.03l0,-5.3c0.01,0.94 0.65,1.76 1.58,2.05l8.66,2.71c3.03,0.95 6.34,0.66 9.14,-0.8l3.68,-1.92c0.57,-0.29 0.93,-0.85 0.94,-1.47l0,5.3c-0.01,0.61 -0.37,1.18 -0.94,1.47l-3.68,1.92c-2.8,1.46 -6.11,1.75 -9.14,0.8l-8.66,-2.71c-0.93,-0.29 -1.57,-1.11 -1.58,-2.05z" fill="white" fill-opacity="0.2" id="svg_7"/>
  <path d="m0,19.03l0,-5.3c0.01,0.94 0.65,1.76 1.58,2.05l8.66,2.71c3.03,0.95 6.34,0.66 9.14,-0.8l3.68,-1.92c0.57,-0.29 0.93,-0.85 0.94,-1.47l0,5.3c-0.01,0.61 -0.37,1.18 -0.94,1.47l-3.68,1.92c-2.8,1.46 -6.11,1.75 -9.14,0.8l-8.66,-2.71c-0.93,-0.29 -1.57,-1.11 -1.58,-2.05z" fill="white" fill-opacity="0.2" id="svg_8"/>
  <path d="m13.64,0.87c-2.93,-0.92 -6.13,-0.64 -8.85,0.78l-3.68,1.92c-0.45,0.23 -0.73,0.68 -0.74,1.16l0,3.78c0.12,-0.1 0.25,-0.18 0.39,-0.26l5.79,-3.02c1.54,-0.8 3.37,-0.96 5.04,-0.44l10.95,3.43c0.42,0.13 0.8,0.36 1.09,0.66l0,-3.58c-0.01,-0.78 -0.54,-1.47 -1.32,-1.72l-8.67,-2.71zm0,0l0.12,-0.33" id="svg_9" stroke="#050505" stroke-width="0.67"/>
  <path d="m13.64,0.87c-2.93,-0.92 -6.13,-0.64 -8.85,0.78l-3.68,1.92c-0.45,0.23 -0.73,0.68 -0.74,1.16l0,3.78c0.12,-0.1 0.25,-0.18 0.39,-0.26l5.79,-3.02c1.54,-0.8 3.37,-0.96 5.04,-0.44l10.95,3.43c0.42,0.13 0.8,0.36 1.09,0.66l0,-3.58c-0.01,-0.78 -0.54,-1.47 -1.32,-1.72l-8.67,-2.71zm0,0l0.12,-0.33" id="svg_10" stroke="white" stroke-opacity="0.2" stroke-width="0.67"/>
  <path d="m13.64,0.87c-2.93,-0.92 -6.13,-0.64 -8.85,0.78l-3.68,1.92c-0.45,0.23 -0.73,0.68 -0.74,1.16l0,3.78c0.12,-0.1 0.25,-0.18 0.39,-0.26l5.79,-3.02c1.54,-0.8 3.37,-0.96 5.04,-0.44l10.95,3.43c0.42,0.13 0.8,0.36 1.09,0.66l0,-3.58c-0.01,-0.78 -0.54,-1.47 -1.32,-1.72l-8.67,-2.71zm0,0l0.12,-0.33" id="svg_11" stroke="white" stroke-opacity="0.2" stroke-width="0.67"/>
  <path d="m13.64,0.87c-2.93,-0.92 -6.13,-0.64 -8.85,0.78l-3.68,1.92c-0.45,0.23 -0.73,0.68 -0.74,1.16l0,3.78c0.12,-0.1 0.25,-0.18 0.39,-0.26l5.79,-3.02c1.54,-0.8 3.37,-0.96 5.04,-0.44l10.95,3.43c0.42,0.13 0.8,0.36 1.09,0.66l0,-3.58c-0.01,-0.78 -0.54,-1.47 -1.32,-1.72l-8.67,-2.71zm0,0l0.12,-0.33" id="svg_12" stroke="white" stroke-opacity="0.2" stroke-width="0.67"/>
  <path d="m0,9.54l0,-5.3c0.01,0.93 0.65,1.75 1.58,2.04l8.66,2.72c3.03,0.94 6.34,0.65 9.14,-0.81l3.68,-1.92c0.57,-0.29 0.93,-0.85 0.94,-1.46l0,5.29c-0.01,0.62 -0.37,1.18 -0.94,1.47l-3.68,1.92c-2.8,1.46 -6.11,1.75 -9.14,0.81l-8.66,-2.72c-0.93,-0.29 -1.57,-1.11 -1.58,-2.04z" fill="#050505" id="svg_13"/>
  <path d="m0,9.54l0,-5.3c0.01,0.93 0.65,1.75 1.58,2.04l8.66,2.72c3.03,0.94 6.34,0.65 9.14,-0.81l3.68,-1.92c0.57,-0.29 0.93,-0.85 0.94,-1.46l0,5.29c-0.01,0.62 -0.37,1.18 -0.94,1.47l-3.68,1.92c-2.8,1.46 -6.11,1.75 -9.14,0.81l-8.66,-2.72c-0.93,-0.29 -1.57,-1.11 -1.58,-2.04z" fill="white" fill-opacity="0.2" id="svg_14"/>
  <path d="m0,9.54l0,-5.3c0.01,0.93 0.65,1.75 1.58,2.04l8.66,2.72c3.03,0.94 6.34,0.65 9.14,-0.81l3.68,-1.92c0.57,-0.29 0.93,-0.85 0.94,-1.46l0,5.29c-0.01,0.62 -0.37,1.18 -0.94,1.47l-3.68,1.92c-2.8,1.46 -6.11,1.75 -9.14,0.81l-8.66,-2.72c-0.93,-0.29 -1.57,-1.11 -1.58,-2.04z" fill="white" fill-opacity="0.2" id="svg_15"/>
  <path d="m0,9.54l0,-5.3c0.01,0.93 0.65,1.75 1.58,2.04l8.66,2.72c3.03,0.94 6.34,0.65 9.14,-0.81l3.68,-1.92c0.57,-0.29 0.93,-0.85 0.94,-1.46l0,5.29c-0.01,0.62 -0.37,1.18 -0.94,1.47l-3.68,1.92c-2.8,1.46 -6.11,1.75 -9.14,0.81l-8.66,-2.72c-0.93,-0.29 -1.57,-1.11 -1.58,-2.04z" fill="white" fill-opacity="0.2" id="svg_16"/>
 </g>
</svg>